<svg xmlns="http://www.w3.org/2000/svg" viewBox="0 0 64 64" role="img" aria-label="Homework Central">
  <!-- Notepad -->
  <rect x="14" y="10" width="34" height="46" rx="3" fill="#ffffff" stroke="#2d3748" stroke-width="2.5"/>
  <rect x="18" y="18" width="5" height="34" fill="#f9a8d4" stroke="#2d3748" stroke-width="1.5"/>
  <line x1="27" y1="24" x2="42" y2="24" stroke="#bfdbfe" stroke-width="2" stroke-linecap="round"/>
  <line x1="27" y1="31" x2="42" y2="31" stroke="#bfdbfe" stroke-width="2" stroke-linecap="round"/>
  <line x1="27" y1="38" x2="42" y2="38" stroke="#bfdbfe" stroke-width="2" stroke-linecap="round"/>
  <circle cx="20" cy="12" r="2.2" fill="none" stroke="#9ca3af" stroke-width="2"/>
  <circle cx="28" cy="12" r="2.2" fill="none" stroke="#9ca3af" stroke-width="2"/>
  <circle cx="36" cy="12" r="2.2" fill="none" stroke="#9ca3af" stroke-width="2"/>
  <circle cx="44" cy="12" r="2.2" fill="none" stroke="#9ca3af" stroke-width="2"/>
  <!-- Pencil -->
  <g transform="translate(8,38) rotate(-38 20 8)">
    <rect x="4" y="2" width="32" height="10" rx="1.5" fill="#facc15" stroke="#2d3748" stroke-width="2"/>
    <polygon points="36,2 44,7 36,12" fill="#d4a574" stroke="#2d3748" stroke-width="2" stroke-linejoin="round"/>
    <polygon points="44,7 48,7 44,9" fill="#374151" stroke="#2d3748" stroke-width="1"/>
    <rect x="0" y="2" width="5" height="10" rx="1" fill="#f9a8d4" stroke="#2d3748" stroke-width="2"/>
    <rect x="4" y="2" width="3" height="10" fill="#9ca3af" stroke="#2d3748" stroke-width="1"/>
  </g>
</svg>
